<?xml version="1.0" encoding="utf-8"?>
<svg width="24px" height="24px" viewBox="0 0 24 24" version="1.1" xmlns:xlink="http://www.w3.org/1999/xlink" xmlns="http://www.w3.org/2000/svg">
  <defs>
    <path d="M0 0L24 0L24 24L0 24L0 0Z" id="path_1" />
    <clipPath id="mask_1">
      <use xlink:href="#path_1" />
    </clipPath>
  </defs>
  <g id="Contacts-icon">
    <path d="M0 0L24 0L24 24L0 24L0 0Z" id="Background" fill="#FFFFFF" fill-opacity="0" fill-rule="evenodd" stroke="none" />
    <g clip-path="url(#mask_1)">
      <path d="M11.94 1.59C9.68812 1.64062 8.26312 2.55187 7.65 3.96C7.06687 5.30062 7.18875 6.99 7.605 8.745C7.38187 9.0075 7.19812 9.37687 7.245 9.93L7.245 9.96C7.32562 10.545 7.50187 10.9575 7.725 11.25C7.83187 11.3887 7.98375 11.3962 8.115 11.475C8.23125 12.1294 8.49187 12.7537 8.79 13.245C8.805 13.3162 8.835 13.3819 8.88 13.44C8.88 13.44 8.92875 13.5019 8.94 13.515C9.09 13.74 9.165 14.0531 9.165 14.4C9.165 14.7694 9.15937 15.1125 9.12 15.495C8.97562 15.8587 8.61562 16.1494 8.04 16.44C7.43812 16.7437 6.65062 17.0231 5.85 17.37C5.04937 17.7169 4.2375 18.1331 3.585 18.795C2.9325 19.4569 2.46562 20.3737 2.4 21.57L2.37 22.08L21.63 22.08L21.6 21.57C21.5344 20.3737 21.0787 19.4587 20.43 18.795C19.7812 18.1312 18.9656 17.7169 18.165 17.37C17.3644 17.0231 16.5712 16.7456 15.96 16.44C15.3675 16.1437 14.9962 15.8419 14.835 15.465C14.7975 15.0112 14.79 14.6531 14.79 14.25C14.79 13.9931 14.8781 13.7606 15.03 13.53C15.0337 13.5244 15.0412 13.5206 15.045 13.515C15.0469 13.5112 15.075 13.485 15.075 13.485C15.135 13.4231 15.1762 13.3444 15.195 13.26C15.4856 12.7612 15.7275 12.1275 15.84 11.49C15.99 11.4112 16.1587 11.4019 16.275 11.25C16.5056 10.9481 16.6406 10.5187 16.695 9.93C16.7381 9.42187 16.5919 9.0525 16.365 8.775C16.6144 8.00625 16.9106 6.77625 16.815 5.52C16.7625 4.83 16.5806 4.14187 16.17 3.57C15.7987 3.0525 15.1987 2.69812 14.445 2.535C13.9369 1.85625 13.0144 1.59 11.955 1.59L11.94 1.59ZM11.955 2.55C11.9606 2.55 11.9644 2.55 11.97 2.55C12.9281 2.55375 13.5412 2.82375 13.74 3.165L13.86 3.375L14.1 3.405C14.76 3.49688 15.1219 3.75188 15.39 4.125C15.6581 4.49813 15.8119 5.01938 15.855 5.595C15.9431 6.74813 15.6094 8.1 15.39 8.715L15.24 9.12L15.615 9.315C15.6112 9.32813 15.7687 9.4875 15.75 9.84C15.75 9.8475 15.75 9.8475 15.75 9.855C15.705 10.3069 15.5887 10.5619 15.51 10.665C15.4294 10.77 15.3881 10.755 15.405 10.755L14.985 10.755L14.925 11.175C14.8425 11.7975 14.5256 12.5813 14.25 12.975L14.235 12.975C14.2069 13.0163 14.1862 13.065 14.16 13.11C14.0344 13.2563 13.845 13.4494 13.575 13.68C13.1269 14.0625 12.5325 14.4 12 14.4C11.4712 14.4 10.8712 14.0456 10.41 13.65C10.0106 13.3069 9.7725 13.0125 9.705 12.93C9.70312 12.9263 9.70687 12.9188 9.705 12.915C9.42187 12.5063 9.0975 11.79 9.015 11.175L8.97 10.755L8.58 10.755C8.56312 10.7475 8.51812 10.7231 8.475 10.665C8.39062 10.5544 8.27062 10.2956 8.205 9.855C8.205 9.84563 8.205 9.84938 8.205 9.84C8.20312 9.8325 8.20687 9.8325 8.205 9.825C8.1975 9.46125 8.4225 9.25875 8.385 9.285L8.655 9.09L8.58 8.76C8.1375 7.01063 8.06812 5.42625 8.535 4.35C9.00187 3.2775 9.94687 2.59875 11.955 2.55L11.955 2.55ZM10.125 14.655C10.6312 15.0281 11.265 15.36 12 15.36C12.72 15.36 13.3369 15.045 13.83 14.685C13.8319 14.9775 13.8412 15.2775 13.875 15.645L13.875 15.705L13.905 15.765C13.9894 15.9862 14.1094 16.1737 14.25 16.35C14.2444 16.3687 14.2387 16.3894 14.235 16.41C14.235 16.41 14.1206 16.725 13.785 17.07C13.4494 17.415 12.9281 17.76 12 17.76C11.0756 17.76 10.5356 17.4 10.185 17.04C9.83437 16.68 9.72 16.35 9.72 16.35C9.85875 16.17 9.97312 15.9769 10.05 15.75L10.08 15.66C10.1212 15.2962 10.125 14.9681 10.125 14.655L10.125 14.655ZM15 17.01C15.1687 17.1187 15.3431 17.22 15.525 17.31C16.2262 17.6587 17.0212 17.9287 17.775 18.255C18.5287 18.5812 19.2319 18.9506 19.74 19.47C20.145 19.8844 20.3887 20.4356 20.52 21.12L3.48 21.12C3.61125 20.4356 3.85312 19.8844 4.26 19.47C4.77 18.9506 5.48625 18.5812 6.24 18.255C6.99375 17.9287 7.78125 17.6606 8.475 17.31C8.6475 17.2219 8.82375 17.13 8.985 17.025C9.09187 17.2181 9.25687 17.4694 9.495 17.715C9.98437 18.2194 10.8131 18.72 12 18.72C13.1831 18.72 13.995 18.225 14.475 17.73C14.7375 17.46 14.8969 17.2087 15 17.01L15 17.01Z" id="Shape" fill="#68819A" fill-rule="evenodd" stroke="none" />
    </g>
  </g>
</svg>