<?xml version="1.0" encoding="utf-8"?>
<svg width="24px" height="24px" viewBox="0 0 24 24" version="1.1" xmlns:xlink="http://www.w3.org/1999/xlink" xmlns="http://www.w3.org/2000/svg">
  <defs>
    <path d="M0 0L24 0L24 24L0 24L0 0Z" id="path_1" />
    <clipPath id="mask_1">
      <use xlink:href="#path_1" />
    </clipPath>
  </defs>
  <g id="Home-icon">
    <path d="M0 0L24 0L24 24L0 24L0 0Z" id="Background" fill="#FFFFFF" fill-opacity="0" fill-rule="evenodd" stroke="none" />
    <g clip-path="url(#mask_1)">
      <path d="M11.9822 0.506265C11.8815 0.509739 11.7844 0.544835 11.7047 0.606577L0.664717 9.22126C0.45554 9.38436 0.418183 9.68615 0.581279 9.89533C0.744375 10.1045 1.04616 10.1419 1.25534 9.97877L1.92003 9.46033L1.92003 22.08C1.92016 22.3453 2.13513 22.5601 2.40022 22.56L9.0394 22.56C9.09124 22.5686 9.14413 22.5686 9.19597 22.56L14.7994 22.56C14.8512 22.5686 14.9041 22.5686 14.956 22.56L21.6 22.56C21.8651 22.56 22.08 22.3451 22.08 22.08L22.08 9.46033L22.7447 9.97876C22.9539 10.1419 23.2557 10.1045 23.4188 9.89533C23.5819 9.68615 23.5445 9.38436 23.3353 9.22127L19.68 6.36939L19.68 2.88001L16.8 2.88001L16.8 4.12127L12.2953 0.606577C12.206 0.537323 12.0951 0.5018 11.9822 0.506265L11.9822 0.506265ZM12 1.5947L21.12 8.71127L21.12 21.6L15.36 21.6L15.36 12.48L8.64003 12.48L8.64003 21.6L2.88003 21.6L2.88003 8.71127L12 1.5947L12 1.5947ZM17.76 3.84001L18.72 3.84001L18.72 5.62032L17.76 4.87032L17.76 3.84001L17.76 3.84001ZM9.60003 13.44L14.4 13.44L14.4 21.6L9.60003 21.6L9.60003 13.44L9.60003 13.44Z" id="Shape" fill="#68819A" fill-rule="evenodd" stroke="none" />
    </g>
  </g>
</svg>