<?xml version="1.0" encoding="utf-8"?>
<svg width="24px" height="24px" viewBox="0 0 24 24" version="1.1" xmlns:xlink="http://www.w3.org/1999/xlink" xmlns="http://www.w3.org/2000/svg">
  <defs>
    <path d="M0 0L24 0L24 24L0 24L0 0Z" id="path_1" />
    <clipPath id="mask_1">
      <use xlink:href="#path_1" />
    </clipPath>
  </defs>
  <g id="Folder-icon">
    <path d="M0 0L24 0L24 24L0 24L0 0Z" id="Background" fill="#FFFFFF" fill-opacity="0" fill-rule="evenodd" stroke="none" />
    <g clip-path="url(#mask_1)">
      <path d="M2.4 1.92C1.61041 1.92 0.959999 2.57041 0.959999 3.36L0.959999 7.68L0.959999 8.64L0.959999 20.64C0.959999 21.4296 1.61041 22.08 2.4 22.08L21.6 22.08C22.3896 22.08 23.04 21.4296 23.04 20.64L23.04 9.12L23.04 7.68L23.04 5.28C23.04 4.49041 22.3896 3.84 21.6 3.84L8.64 3.84C8.68155 3.84 8.62511 3.84017 8.50781 3.705C8.39051 3.56982 8.24612 3.34557 8.09531 3.105C7.9445 2.86443 7.78645 2.60774 7.58719 2.38219C7.38792 2.15663 7.113 1.92 6.72 1.92L2.4 1.92L2.4 1.92ZM2.4 2.88L6.72 2.88C6.69084 2.88 6.74935 2.88337 6.86812 3.01782C6.9869 3.15227 7.13147 3.37558 7.28156 3.615C7.43165 3.85443 7.58708 4.11018 7.78219 4.335C7.97729 4.55983 8.24588 4.8 8.64 4.8L21.6 4.8C21.8712 4.8 22.08 5.00879 22.08 5.28L22.08 6.33C21.9289 6.2755 21.7689 6.24 21.6 6.24L2.4 6.24C2.23111 6.24 2.07115 6.2755 1.92 6.33L1.92 3.36C1.92 3.08879 2.12878 2.88 2.4 2.88L2.4 2.88ZM2.4 7.2L21.6 7.2C21.8712 7.2 22.08 7.40878 22.08 7.68L22.08 9.12L22.08 20.64C22.08 20.9112 21.8712 21.12 21.6 21.12L2.4 21.12C2.12878 21.12 1.92 20.9112 1.92 20.64L1.92 8.64L1.92 7.68C1.92 7.40878 2.12878 7.2 2.4 7.2L2.4 7.2Z" id="Shape" fill="#68819A" fill-rule="evenodd" stroke="none" />
    </g>
  </g>
</svg>